<svg id="visual" viewBox="0 0 1960 1080" width="1960" height="1080" xmlns="http://www.w3.org/2000/svg" xmlns:xlink="http://www.w3.org/1999/xlink" version="1.1"><rect x="0" y="0" width="1960" height="1080" fill="#080708"></rect><defs><linearGradient id="grad1_0" x1="44.9%" y1="0%" x2="100%" y2="100%"><stop offset="13.703703703703702%" stop-color="#ff7700" stop-opacity="1"></stop><stop offset="86.2962962962963%" stop-color="#ff7700" stop-opacity="1"></stop></linearGradient></defs><defs><linearGradient id="grad1_1" x1="44.9%" y1="0%" x2="100%" y2="100%"><stop offset="13.703703703703702%" stop-color="#ff7700" stop-opacity="1"></stop><stop offset="86.2962962962963%" stop-color="#bb3a41" stop-opacity="1"></stop></linearGradient></defs><defs><linearGradient id="grad1_2" x1="44.9%" y1="0%" x2="100%" y2="100%"><stop offset="13.703703703703702%" stop-color="#5d233b" stop-opacity="1"></stop><stop offset="86.2962962962963%" stop-color="#bb3a41" stop-opacity="1"></stop></linearGradient></defs><defs><linearGradient id="grad1_3" x1="44.9%" y1="0%" x2="100%" y2="100%"><stop offset="13.703703703703702%" stop-color="#5d233b" stop-opacity="1"></stop><stop offset="86.2962962962963%" stop-color="#080708" stop-opacity="1"></stop></linearGradient></defs><defs><linearGradient id="grad2_0" x1="0%" y1="0%" x2="55.1%" y2="100%"><stop offset="13.703703703703702%" stop-color="#ff7700" stop-opacity="1"></stop><stop offset="86.2962962962963%" stop-color="#ff7700" stop-opacity="1"></stop></linearGradient></defs><defs><linearGradient id="grad2_1" x1="0%" y1="0%" x2="55.1%" y2="100%"><stop offset="13.703703703703702%" stop-color="#bb3a41" stop-opacity="1"></stop><stop offset="86.2962962962963%" stop-color="#ff7700" stop-opacity="1"></stop></linearGradient></defs><defs><linearGradient id="grad2_2" x1="0%" y1="0%" x2="55.1%" y2="100%"><stop offset="13.703703703703702%" stop-color="#bb3a41" stop-opacity="1"></stop><stop offset="86.2962962962963%" stop-color="#5d233b" stop-opacity="1"></stop></linearGradient></defs><defs><linearGradient id="grad2_3" x1="0%" y1="0%" x2="55.1%" y2="100%"><stop offset="13.703703703703702%" stop-color="#080708" stop-opacity="1"></stop><stop offset="86.2962962962963%" stop-color="#5d233b" stop-opacity="1"></stop></linearGradient></defs><g transform="translate(1960, 0)"><path d="M0 594C-105.2 579.2 -210.4 564.4 -297 514.4C-383.6 464.4 -451.6 379.1 -498 287.5C-544.4 195.9 -569.2 97.9 -594 0L0 0Z" fill="#301928"></path><path d="M0 445.5C-78.9 434.4 -157.8 423.3 -222.7 385.8C-287.7 348.3 -338.7 284.3 -373.5 215.6C-408.3 146.9 -426.9 73.5 -445.5 0L0 0Z" fill="#8d2c44"></path><path d="M0 297C-52.6 289.6 -105.2 282.2 -148.5 257.2C-191.8 232.2 -225.8 189.6 -249 143.8C-272.2 97.9 -284.6 49 -297 0L0 0Z" fill="#e35331"></path><path d="M0 148.5C-26.3 144.8 -52.6 141.1 -74.2 128.6C-95.9 116.1 -112.9 94.8 -124.5 71.9C-136.1 49 -142.3 24.5 -148.5 0L0 0Z" fill="#ff7700"></path></g><g transform="translate(0, 1080)"><path d="M0 -594C108.4 -581.1 216.9 -568.2 297 -514.4C377.1 -460.7 428.9 -366 473.7 -273.5C518.5 -181 556.2 -90.5 594 0L0 0Z" fill="#301928"></path><path d="M0 -445.5C81.3 -435.8 162.7 -426.1 222.7 -385.8C282.8 -345.5 321.7 -274.5 355.3 -205.1C388.9 -135.7 417.2 -67.9 445.5 0L0 0Z" fill="#8d2c44"></path><path d="M0 -297C54.2 -290.5 108.4 -284.1 148.5 -257.2C188.6 -230.3 214.5 -183 236.9 -136.8C259.2 -90.5 278.1 -45.2 297 0L0 0Z" fill="#e35331"></path><path d="M0 -148.5C27.1 -145.3 54.2 -142 74.2 -128.6C94.3 -115.2 107.2 -91.5 118.4 -68.4C129.6 -45.2 139.1 -22.6 148.5 0L0 0Z" fill="#ff7700"></path></g></svg>